<svg width="223" height="45" viewBox="0 0 223 45" fill="none" xmlns="http://www.w3.org/2000/svg">
<path d="M72.7107 12.347V43.8824H67.2688V36.6424C67.1093 37.2444 66.9259 37.8145 66.7146 38.3527C65.8774 40.4817 64.6455 42.0883 63.0308 43.1807C61.4122 44.2731 59.375 44.8193 56.9151 44.8193H56.6201C52.9124 44.8193 50.0659 43.6193 48.0805 41.2232C46.0911 38.8232 45.0944 35.2829 45.0944 30.6025V12.347H51.9396V31.5354C51.9396 33.7241 52.5456 35.4464 53.7536 36.7142C54.9616 37.982 56.6002 38.6159 58.6693 38.6159C60.7384 38.6159 62.5006 37.9421 63.8481 36.5986C65.1957 35.251 65.8654 33.4091 65.8654 31.0689V12.347H72.7107ZM98.0028 17.4381V12.347H87.705V7.27187H81.2105V12.347H76.0038V17.4381H81.2105V32.5919C81.2105 35.5181 81.669 37.8384 82.586 39.5527C83.5029 41.271 84.8584 42.479 86.6525 43.1807C88.4465 43.8824 90.6472 44.2332 93.2625 44.2332H98.0028V38.265H92.7363C91.1376 38.265 89.8977 37.8265 89.0206 36.9494C88.1435 36.0723 87.705 34.8125 87.705 33.1739V17.4381H98.0028ZM131.372 29.6656H107.033C107.156 31.1646 107.467 32.544 107.966 33.7879C108.628 35.4464 109.664 36.754 111.067 37.7069C112.475 38.6637 114.265 39.1421 116.45 39.1421C118.634 39.1421 120.428 38.6637 121.832 37.7069C123.239 36.754 124.096 35.6298 124.407 34.342H130.786C130.355 36.4869 129.486 38.3607 128.183 39.9594C126.875 41.5581 125.228 42.786 123.239 43.6432C121.25 44.5043 118.985 44.9309 116.45 44.9309C113.719 44.9309 111.339 44.4605 109.313 43.5236C107.284 42.5867 105.625 41.3468 104.338 39.8079C103.05 38.269 102.085 36.5308 101.439 34.6012C100.798 32.6716 100.475 30.6902 100.475 28.6609V27.5486C100.475 25.4794 100.794 23.4821 101.439 21.5525C102.085 19.6229 103.05 17.8847 104.338 16.3458C105.625 14.8069 107.252 13.575 109.226 12.658C111.195 11.741 113.487 11.2826 116.099 11.2826C119.495 11.2826 122.322 12.0241 124.587 13.5032C126.847 14.9863 128.545 16.9079 129.674 19.2681C130.806 21.6282 131.372 24.1718 131.372 26.9027V29.6536V29.6656ZM124.726 25.0409C124.567 23.8927 124.288 22.8482 123.885 21.9113C123.219 20.3684 122.246 19.1804 120.959 18.3431C119.671 17.5019 118.052 17.0833 116.099 17.0833C114.145 17.0833 112.375 17.5498 111.008 18.4867C109.64 19.4235 108.628 20.7073 107.966 22.3458C107.635 23.1711 107.384 24.0681 107.216 25.0369H124.722L124.726 25.0409ZM161.468 15.0979C159.559 12.642 156.652 11.4101 152.749 11.4101H152.458C149.922 11.4101 147.798 11.9643 146.079 13.0806C144.361 14.1929 143.085 15.8195 142.248 17.9644C142.009 18.5784 141.801 19.2322 141.634 19.9259V12.351H136.196V43.8864H143.041V25.2203C143.041 22.9199 143.723 21.0781 145.087 19.6907C146.45 18.3072 148.248 17.6136 150.469 17.6136C152.689 17.6136 154.372 18.2873 155.62 19.6309C156.867 20.9744 157.489 22.7405 157.489 24.9253V43.8824H164.339V25.8622C164.339 21.1458 163.382 17.5538 161.472 15.0979H161.468ZM179.038 3.9788C179.038 5.15091 178.715 6.10375 178.073 6.84529C177.427 7.58682 176.423 7.95759 175.063 7.95759C173.704 7.95759 172.751 7.59081 172.105 6.84529C171.463 6.10375 171.14 5.15091 171.14 3.9788C171.14 2.80669 171.463 1.90169 172.105 1.14022C172.751 0.378743 173.735 0 175.063 0C176.391 0 177.427 0.378743 178.073 1.14022C178.715 1.90169 179.038 2.84655 179.038 3.9788ZM168.214 12.347V17.6136H172.834V43.8824H179.684V12.347H168.214ZM192.206 12.4108L215.206 43.8824H206.754L183.926 12.4108H192.206ZM215.202 12.4148L205.271 26.1054L201.093 20.3963L206.925 12.4148H215.202ZM193.016 42.9973L192.374 43.8784H183.926L188.813 37.1966L193.016 42.9973ZM217.123 12.4108V12.8494H218.021V15.4408H218.519V12.8494H219.42V12.4108H217.123ZM222.318 12.4108L221.497 14.3245H221.425L220.596 12.4108H219.922V15.4408H220.377V12.9969L221.166 14.8188H221.716L222.506 12.9809V15.4408H223V12.4108H222.318ZM26.7991 31.0131L24.5984 34.0789H16.4574L24.1279 23.4861L26.7991 31.0131ZM35.8092 28.8244L35.3228 27.4649L33.3414 21.9551L33.3812 21.8874L34.2025 20.7511L40.3142 12.3111H32.2689L31.2682 13.6786L30.6423 14.5318L25.5991 0.590042H14.9783L0 43.3003H7.02469L19.6667 6.61007H20.7551L33.7919 43.3003H41.0478L35.8092 28.8244Z" fill="black"/>
</svg>

